<?xml version="1.0" encoding="utf-8"?>
<!-- Generator: Adobe Illustrator 17.1.0, SVG Export Plug-In . SVG Version: 6.00 Build 0)  -->
<!DOCTYPE svg PUBLIC "-//W3C//DTD SVG 1.1//EN" "http://www.w3.org/Graphics/SVG/1.1/DTD/svg11.dtd">
<svg version="1.1" id="Layer_1" xmlns="http://www.w3.org/2000/svg" xmlns:xlink="http://www.w3.org/1999/xlink" x="0px" y="0px"
	 viewBox="0 0 45 45" width="316" height="316" 
 enable-background="new 0 0 45 45" xml:space="preserve">
<g>
	<g>
		<path fill="#FEFEFE" d="M23.8,0c7,0,14,0,21,0c0.2,0,0.2,0,0.2,0.2c0,14.8,0,29.7,0,44.5c0,0.2,0,0.2-0.2,0.2
			c-14.8,0-29.7,0-44.5,0C0.1,45,0,44.9,0,44.8c0-7,0-14,0-21c0.1,0,0.1,0.1,0.1,0.2c0.1,0.8,0.2,1.6,0.3,2.4c0.3,1.7,0.8,3.4,1.5,5
			c0.8,1.8,1.8,3.5,3,5c1.6,2.1,3.6,3.8,5.8,5.2c1.4,0.9,3,1.6,4.6,2.1c1.4,0.5,2.9,0.8,4.4,1c0.6,0.1,1.2,0.1,1.7,0.1
			c0.4,0,0.8,0,1.2,0c1.6,0,3.3-0.2,4.9-0.6c1.6-0.4,3.1-0.9,4.6-1.6c1.8-0.8,3.4-1.9,4.9-3.2c1.2-1,2.2-2.1,3.1-3.3
			c0.8-1,1.5-2.1,2.1-3.2c0.6-1.1,1.1-2.2,1.5-3.4c0.5-1.4,0.8-2.9,1-4.3c0.1-0.6,0.1-1.2,0.1-1.8c0-0.4,0-0.9,0-1.3
			c0-1.7-0.2-3.3-0.6-4.9c-0.4-1.9-1.1-3.6-2-5.3c-0.7-1.4-1.6-2.7-2.7-3.9c-0.7-0.8-1.4-1.5-2.2-2.2c-1.2-1.1-2.6-2.1-4.1-2.9
			c-1.3-0.7-2.7-1.3-4.2-1.8c-1.3-0.4-2.7-0.7-4.1-0.8c-0.4,0-0.7-0.1-1.1-0.1C23.9,0.1,23.8,0.2,23.8,0C23.7,0.1,23.7,0.1,23.8,0z"
			/>
		<path fill="#005494" d="M23.8,0.1c3.4,0.2,6.7,1.1,9.7,2.8C36,4.3,38.1,6.1,40,8.4c2.3,2.9,3.9,6.2,4.6,9.8
			c0.4,1.9,0.5,3.9,0.3,5.9c-0.3,4.4-1.8,8.4-4.5,12c-1.9,2.5-4.2,4.5-6.9,6c-2.2,1.2-4.5,2.1-6.9,2.5c-1.7,0.3-3.4,0.4-5.1,0.3
			c-2.4-0.1-4.7-0.6-7-1.4c-2.3-0.9-4.4-2.1-6.4-3.7c-3.2-2.7-5.5-6-6.9-10c-0.7-1.9-1-3.8-1.2-5.8c0-0.1,0-0.1,0-0.2
			c0-0.1,0-0.3,0-0.4c0-0.2,0-0.4,0-0.6c0-0.3,0-0.6,0-0.8c0-0.1,0-0.1,0-0.2c0-0.1,0-0.1,0-0.2c0-0.1,0-0.2,0-0.3
			c0.1-0.3,0-0.7,0.1-1c0.1-1.3,0.4-2.7,0.8-4c0.4-1.3,0.9-2.6,1.5-3.8C3.1,10.9,4,9.5,5.1,8.3c1.9-2.2,4-4.1,6.5-5.5
			c2.2-1.2,4.5-2,7-2.5c0.8-0.1,1.7-0.3,2.5-0.3c0,0,0.1,0,0.1,0c0,0,0,0,0,0c0.1,0,0.2,0,0.3,0c0.1,0,0.1,0,0.2,0
			c0.4,0,0.9,0,1.3,0c0.1,0,0.2,0,0.4,0C23.6,0.1,23.7,0,23.8,0.1z"/>
		<path fill="#FEFEFE" d="M21.2,0c0,0.1-0.1,0-0.1,0C16.5,0.4,12.3,2,8.6,4.8C5.4,7.4,3,10.6,1.5,14.4c-0.8,2-1.2,4.1-1.4,6.2
			c0,0.2,0,0.4-0.1,0.6c0-7,0-14,0-21C0,0.1,0.1,0,0.2,0C7.2,0,14.2,0,21.2,0z"/>
		<path fill="#286EA5" d="M23.1,0c-0.2,0.1-0.5,0-0.7,0c-0.2,0-0.4,0.1-0.6,0C22.2,0,22.7,0,23.1,0z"/>
		<path fill="#276EA5" d="M0,21.9c0.1,0.3,0,0.6,0,0.9c0,0,0,0,0,0C0,22.4,0,22.1,0,21.9z"/>
		<path fill="#3678AB" d="M0,22.7C0.1,22.7,0.1,22.7,0,22.7c0,0.2,0.1,0.4,0,0.6C0,23.1,0,22.9,0,22.7z"/>
		<path fill="#ABC7DB" d="M21.6,0c-0.1,0.1-0.2,0.1-0.3,0C21.4,0,21.5,0,21.6,0z"/>
		<path fill="#CDDDEA" d="M23.8,0.1c-0.1,0-0.2,0-0.3,0C23.6,0,23.7,0,23.8,0.1C23.8,0.1,23.8,0.1,23.8,0.1z"/>
		<path fill="#97B9D4" d="M0,21.5c0.1,0.1,0.1,0.1,0,0.2C0,21.6,0,21.5,0,21.5z"/>
		<path fill="#FEFEFE" d="M43.9,22.5c0,11.7-9.4,21.2-20.9,21.4C10.9,44.2,1.3,34.5,1.1,23C0.8,10.8,10.6,1.3,22,1.1
			C34.2,0.8,44,10.7,43.9,22.5z"/>
		<path fill="#005494" d="M22.5,5.9c9.2,0,16.6,7.4,16.6,16.5c0.1,9.3-7.5,16.8-16.8,16.7C13.3,39,5.8,31.6,5.9,22.2
			C6,13.2,13.4,5.9,22.5,5.9z"/>
		<path fill="#005494" d="M31.2,4.4c-0.1,0-0.2,0.1-0.2,0.2C30.8,5,30.8,5,31.2,5.2c0.1,0,0.1,0.1,0.2,0.1c0.1,0.1,0.3,0.2,0.4,0.2
			C31.9,5.3,32,5.1,32,4.9c0-0.1,0-0.1,0-0.1c-0.1-0.1-0.1-0.1,0-0.2c0.1-0.1,0.2-0.2,0.3-0.1c0.2,0.1,0.4,0.2,0.7,0.3
			c0.1,0.1,0.1,0.2,0.1,0.2c0,0.1,0,0.2-0.2,0.2c-0.1,0-0.2,0.1-0.2,0.1c-0.3,0.5-0.5,1-0.8,1.5c0,0.1-0.1,0.2,0,0.2
			c0.2,0.2,0,0.2-0.1,0.3c-0.1,0.1-0.2,0-0.2,0c-0.2-0.1-0.4-0.2-0.6-0.3c-0.1,0-0.2-0.1-0.2-0.2c0-0.1,0-0.3,0.2-0.2
			c0.1,0,0.1,0,0.1-0.1C31.6,6,31.6,6,31,5.7c-0.5-0.2-0.5-0.2-0.7,0.2c-0.1,0.1-0.2,0.3,0,0.4c0.1,0.1-0.1,0.1-0.1,0.2
			c0,0.1-0.1,0.1-0.1,0c-0.3-0.1-0.5-0.3-0.8-0.4c-0.1-0.1,0-0.2,0-0.3c0-0.1,0-0.1,0.1-0.1c0.1,0,0.2,0,0.2-0.1
			c0.3-0.5,0.5-1,0.8-1.5c0-0.1,0.1-0.2,0-0.2c-0.2-0.2,0-0.2,0.1-0.3c0.1-0.1,0.2,0,0.2,0c0.2,0.1,0.5,0.2,0.7,0.3
			c0.2,0.1,0.1,0.2,0,0.3C31.4,4.3,31.4,4.4,31.2,4.4z"/>
		<path fill="#005494" d="M7.1,33.2c-0.3,0.3-0.6,0.5-0.9,0.7C6.1,33.9,6,34,6,34c0.1,0.2-0.1,0.2-0.2,0.3c-0.2,0.1-0.2-0.1-0.2-0.1
			c-0.1-0.1-0.2-0.3-0.4-0.5c-0.1-0.1-0.1-0.2,0-0.2c0.1,0,0.1-0.2,0.2-0.1c0.1,0.1,0.2,0,0.3-0.1c0.6-0.4,1.1-0.8,1.6-1.2
			c0.1-0.1,0.2-0.1,0.3,0c0.2,0.2,0.2,0.4,0.1,0.7c-0.2,0.6-0.4,1.2-0.5,1.8c0.1,0,0.1,0,0.1,0C7.7,34.4,8,34.2,8.2,34
			c0.1-0.1,0.2-0.1,0.2-0.3c0-0.1,0.1-0.1,0.2-0.1c0.1,0,0.1-0.1,0.2,0c0.1,0.2,0.3,0.4,0.5,0.6c0.1,0.1-0.1,0.2-0.1,0.3
			c0,0.1-0.1,0.1-0.2,0c-0.1-0.1-0.2,0-0.2,0c-0.5,0.3-0.9,0.7-1.4,1c-0.1,0-0.1,0.1-0.1,0.2c0.1,0.2-0.1,0.2-0.2,0.3
			c-0.1,0.1-0.2-0.1-0.2-0.1c-0.4-0.3-0.4-0.7-0.2-1.1C6.8,34.2,6.9,33.7,7.1,33.2z"/>
		<path fill="#005494" d="M39.8,29.8c0.4,0.1,0.7,0.3,1.1,0.4c0.1,0,0.2,0,0.2,0c0.1-0.2,0.2,0,0.3,0c0.1,0.1,0,0.2,0,0.2
			c-0.1,0.2-0.1,0.3-0.2,0.5c0,0.1,0,0.2-0.2,0.1c-0.1,0-0.3,0.1-0.3-0.2c0-0.1-0.1-0.2-0.2-0.2c-0.6-0.2-1.3-0.5-1.9-0.7
			c-0.2-0.1-0.2-0.1-0.1-0.3c0.1-0.3,0.2-0.4,0.5-0.5c0.6-0.1,1.3-0.4,1.9-0.5c-0.4-0.2-0.8-0.3-1.2-0.5c-0.1,0-0.1,0-0.2,0
			c-0.1,0.2-0.2,0-0.3,0c-0.1-0.1,0-0.2,0-0.2c0-0.2,0.1-0.3,0.2-0.5c0.1-0.2,0.2-0.2,0.4-0.2c0,0,0.1,0,0.1,0.1
			c0,0.2,0.2,0.3,0.3,0.3c0.5,0.2,0.9,0.3,1.4,0.5c0.1,0,0.2,0.1,0.3,0c0.1-0.1,0.1,0,0.2,0c0.1,0,0.2,0.1,0.1,0.2
			c-0.1,0.2-0.2,0.4-0.2,0.6c0,0.1-0.1,0.1-0.1,0.1C41.1,29.4,40.5,29.6,39.8,29.8z"/>
		<path fill="#005494" d="M3.8,19.6c0.2-0.3,0.5-0.4,0.8-0.4c0.1,0,0.2-0.1,0.3-0.2c0-0.1,0-0.2,0.1-0.1c0.1,0.1,0.3,0,0.3,0.2
			c0,0.2,0,0.5-0.1,0.7c0,0.1-0.1,0.1-0.2,0.2C4.7,20,4.5,20,4.3,20.1c-0.3,0-0.5,0.3-0.5,0.6c0,0.1,0,0.1,0.1,0.1
			c0.2,0,0.4,0,0.5,0.1c0,0,0.1,0,0.1,0c0.1-0.2,0.2-0.1,0.3-0.1C5.1,20.8,5,20.9,5,21c0,0.2,0,0.5-0.1,0.7c0,0.1,0,0.2-0.2,0.2
			c-0.1,0-0.2,0.1-0.3-0.1c0-0.1-0.1-0.1-0.2-0.1c-0.6-0.1-1.1-0.1-1.7-0.2c-0.1,0-0.2,0-0.2,0.1c-0.1,0.2-0.2,0.1-0.3,0.1
			c-0.2,0-0.1-0.1-0.1-0.2c0.1-0.5,0.1-1,0.2-1.5c0.1-0.4,0.2-0.7,0.6-0.8C3.2,18.9,3.5,19.1,3.8,19.6z"/>
		<path fill="#005494" d="M41,18.4c-0.1,0.3-0.3,0.5-0.5,0.6c-0.1,0.1-0.2,0.1-0.2,0.3c0,0.1,0,0.2-0.1,0.1c-0.1,0-0.3,0.1-0.3-0.1
			c-0.1-0.2-0.1-0.4-0.2-0.6c0-0.1,0.1-0.2,0.2-0.3c0.2-0.1,0.3-0.2,0.5-0.3c0.3-0.2,0.3-0.5,0.2-0.8c0,0,0,0-0.1,0
			c-0.1,0-0.3,0.1-0.4,0.1c-0.1,0-0.2,0.1-0.3,0.3c0,0.1-0.2,0-0.2,0.1c-0.1,0-0.1,0-0.2-0.1c-0.1-0.3-0.2-0.6-0.2-0.9
			c0-0.2,0.1-0.1,0.2-0.2c0.1-0.1,0.1-0.1,0.2,0c0,0.1,0.1,0.1,0.2,0.1c0.6-0.1,1.1-0.3,1.7-0.4c0.1,0,0.1,0,0.2-0.1
			c0-0.2,0.2-0.2,0.3-0.2c0.2,0,0.1,0.1,0.1,0.2c0.1,0.5,0.3,0.9,0.4,1.4c0.1,0.5-0.1,0.9-0.4,1C41.7,18.8,41.4,18.7,41,18.4z"/>
		<path fill="#005494" d="M37.9,11.1c0.1,0.6-0.3,1.1-0.8,1c-0.3,0-0.5-0.2-0.6-0.4c-0.3-0.4-0.6-0.8-1-1.2c-0.1-0.1,0-0.2,0-0.2
			c0.1-0.1,0.1-0.2,0.2-0.1c0.1,0.1,0.2,0,0.2,0c0.4-0.4,0.9-0.7,1.3-1.1c0.1,0,0.1-0.1,0.1-0.2c-0.1-0.2,0.1-0.2,0.2-0.3
			c0.1-0.1,0.2,0,0.2,0.1c0.3,0.3,0.5,0.7,0.8,1c0.1,0.2,0.2,0.3,0.3,0.5c0.1,0.5-0.3,1-0.8,0.8C38,11.2,38,11.1,37.9,11.1z"/>
		<path fill="#005494" d="M34.6,9.4c-0.7-0.1-1.2-0.5-1.5-1.2c-0.2-0.5,0-1,0.3-1.3c0.3-0.4,0.7-0.7,1.2-0.7c0.6,0,1.4,0.8,1.5,1.4
			c0,0.3,0,0.5-0.2,0.8c-0.3,0.5-0.6,0.9-1.3,1C34.7,9.4,34.7,9.4,34.6,9.4z"/>
		<path fill="#005494" d="M22.5,3.5c0-0.4,0.1-0.8,0.4-1.1C23.3,1.9,23.9,2,24.4,2c0.9,0.2,1.2,0.8,1.1,1.6c0,0.5-0.2,0.9-0.6,1.2
			c-0.6,0.4-1.7,0.2-2.1-0.4C22.6,4.2,22.5,3.9,22.5,3.5z"/>
		<path fill="#005494" d="M20.1,41.4c-0.1-0.1-0.2-0.2-0.3-0.3c-0.3-0.3-0.2-0.7,0.1-0.9c0.5-0.3,1.6-0.2,2,0.2
			c0.3,0.3,0.2,0.6-0.1,0.9c-0.1,0.1-0.2,0.1-0.4,0.2c0.2,0.1,0.3,0.2,0.4,0.3c0.3,0.3,0.3,0.8-0.1,1.1c-0.5,0.3-1.6,0.2-2-0.2
			c-0.4-0.3-0.3-0.8,0.1-1.1C19.8,41.5,19.9,41.5,20.1,41.4z"/>
		<path fill="#005494" d="M11.7,36.8c0,0.3-0.1,0.5-0.3,0.7c-0.3,0.3-0.5,0.6-0.8,0.9c-0.1,0.1-0.2,0.2-0.1,0.3
			c0.1,0.1,0,0.1-0.1,0.1c-0.1,0-0.1,0.2-0.3,0.1c-0.2-0.2-0.5-0.4-0.7-0.6c-0.1-0.1,0-0.2,0.1-0.3C9.6,38,9.6,38,9.7,38
			c0.1,0.1,0.2,0,0.2-0.1c0.3-0.3,0.6-0.7,0.8-1c0.2-0.3,0.2-0.5-0.1-0.7c-0.3-0.2-0.5-0.2-0.7,0c-0.3,0.3-0.6,0.7-0.8,1
			c0,0.1-0.1,0.1-0.1,0.2c0.1,0.2-0.1,0.2-0.1,0.3c-0.1,0.1-0.2,0-0.2-0.1c-0.2-0.1-0.3-0.2-0.4-0.4c-0.2-0.1-0.2-0.3,0-0.4
			c0,0,0,0,0.1,0c0.2,0.1,0.3,0,0.3-0.1c0.3-0.3,0.5-0.6,0.8-0.9c0.4-0.4,0.8-0.5,1.3-0.2c0.4,0.2,0.8,0.5,0.9,1
			C11.7,36.7,11.7,36.8,11.7,36.8z"/>
		<path fill="#005494" d="M37.9,13.9c0-0.5,0.2-0.8,0.6-1c0.4-0.2,0.7-0.4,1.1-0.6c0.1-0.1,0.3-0.1,0.2-0.3c0-0.1,0.1-0.1,0.1-0.1
			c0.1,0,0.2-0.1,0.3,0c0.1,0.3,0.3,0.6,0.4,0.8c0.1,0.1-0.1,0.2-0.2,0.2c-0.1,0.1-0.1,0.1-0.2,0c-0.1-0.1-0.2-0.1-0.2,0
			c-0.4,0.2-0.8,0.4-1.2,0.6c-0.3,0.2-0.3,0.4-0.2,0.7c0.2,0.3,0.4,0.4,0.7,0.3c0.4-0.2,0.8-0.4,1.2-0.6c0.1,0,0.2-0.1,0.1-0.2
			c0-0.2,0.1-0.2,0.2-0.2c0.2-0.1,0.2,0.1,0.2,0.2c0.1,0.2,0.2,0.4,0.3,0.6c0.1,0.1,0.1,0.2,0,0.2c-0.1,0-0.1,0.2-0.3,0.1
			c-0.1-0.1-0.2,0-0.3,0c-0.4,0.2-0.7,0.4-1.1,0.5c-0.5,0.3-1,0.2-1.4-0.3C38.1,14.6,37.9,14.2,37.9,13.9z"/>
		<path fill="#005494" d="M8.2,8.3C8,8.4,8.1,8.2,8,8.1C7.9,8.1,8,8,8,7.9C8.3,7.6,8.7,7.4,9,7.1C9.1,7,9.1,7,9.2,7.1
			c0.1,0.1,0.2,0.1,0.1,0.2c-0.1,0.1,0,0.1,0.1,0.2C10,7.7,10.5,8,11.1,8.3c0,0,0.1,0,0.1,0c0.2-0.1,0.2,0,0.3,0.1
			c0.1,0.2-0.1,0.2-0.1,0.3C11.3,8.9,11.1,9,11,9.2c-0.1,0-0.1,0.2-0.2,0.1c-0.1-0.1-0.3-0.1-0.2-0.3c0-0.1-0.1-0.1-0.2-0.2
			c-0.1,0-0.1-0.1-0.2,0C10,9,9.8,9.2,9.6,9.4c-0.1,0.1,0,0.2,0,0.3c0,0.1,0.1,0.1,0.2,0.1C9.9,9.7,9.9,9.9,10,10
			c0.1,0.1,0,0.1,0,0.2c-0.1,0.1-0.3,0.3-0.4,0.4c-0.1,0.1-0.3,0.1-0.4-0.1c0,0,0,0,0-0.1c0.1-0.1,0-0.3,0-0.4
			C8.9,9.5,8.6,9,8.4,8.5C8.4,8.4,8.4,8.3,8.2,8.3z"/>
		<path fill="#005494" d="M20.2,2.1c0.2,0,0.4,0,0.7,0.1C21,2.2,21,2.3,21,2.4c0,0.1,0,0.3,0,0.4c0,0.1,0,0.1-0.1,0.1
			c-0.1,0-0.2,0-0.2-0.1c-0.2-0.3-0.5-0.3-0.8-0.2c-0.3,0.1-0.5,0.3-0.5,0.6c-0.1,0.4,0,0.7,0.2,1c0.2,0.3,0.7,0.4,1,0.2
			c0.1-0.1,0-0.2,0-0.4c0-0.1,0-0.2-0.2-0.2c-0.1,0-0.2,0-0.1-0.1c0-0.1,0-0.3,0.1-0.3c0.3,0,0.6-0.1,0.8-0.1c0.2,0,0.2,0.1,0.2,0.2
			c0.1,0.1,0,0.1-0.1,0.2c-0.1,0.1-0.1,0.4,0,0.6c0.1,0.2,0.1,0.4-0.1,0.4c-0.4,0.1-0.7,0.3-1.1,0.3c-0.6,0-1.1-0.1-1.4-0.6
			c-0.3-0.6-0.4-1.2,0-1.8C19.1,2.3,19.6,2.1,20.2,2.1z"/>
		<path fill="#005494" d="M41.6,22.5c0,0.1,0,0.2,0,0.3c0.1,0.2-0.1,0.3-0.3,0.3c0,0-0.1,0-0.1,0c0-0.1,0-0.2-0.2-0.2
			c-0.1,0-0.3,0-0.4,0.1c-0.2,0.1-0.4,0.1-0.5-0.2c-0.1-0.4-0.2-0.8-0.2-1.2c0.1-0.9,0.6-1.4,1.4-1.4c0.9,0,1.5,0.5,1.5,1.4
			c0,0.4,0,0.8-0.2,1.1c0,0.1-0.1,0.1-0.2,0.1c-0.1,0-0.2,0-0.4-0.1c-0.1,0-0.2,0-0.2-0.1c0-0.1,0-0.2,0.1-0.2
			c0.3-0.2,0.3-0.4,0.3-0.7c0-0.3-0.2-0.5-0.4-0.6c-0.4-0.1-0.8-0.1-1.1,0.1c-0.3,0.1-0.5,0.7-0.3,1c0.1,0.1,0.2,0,0.4,0.1
			c0.1,0,0.2,0,0.2-0.1c0-0.1,0-0.2,0.1-0.1c0.1,0,0.3,0,0.3,0.2C41.6,22.2,41.6,22.3,41.6,22.5C41.6,22.5,41.6,22.5,41.6,22.5z"/>
		<path fill="#005494" d="M4.5,22.9c0.4,0,0.4,0,0.4,0.4c0,0.6,0.1,1.1,0.2,1.7c0,0.1,0.1,0.2-0.1,0.2c-0.1,0-0.2,0.2-0.3,0
			c0-0.1-0.1-0.1-0.2-0.1c-0.5,0-1.1,0.1-1.6,0.2c-0.1,0-0.2,0-0.3,0.2c0,0.1-0.1,0.1-0.2,0c-0.1,0-0.2,0-0.2-0.1
			C2.1,24.7,2,24.1,2,23.4c0-0.1,0-0.1,0.1-0.1c0.1,0,0.3,0,0.4,0c0.1,0,0.2-0.1,0.2,0.1c0,0.1,0.1,0.2-0.1,0.2
			c-0.1,0-0.1,0.1-0.1,0.2c0,0,0,0.1,0,0.1c0.1,0.7-0.1,0.6,0.6,0.5c0.1,0,0.2,0,0.1-0.2c0-0.2,0.1-0.4-0.2-0.6
			c-0.1,0,0-0.3,0.1-0.3c0.1,0,0.3,0,0.4,0c0.1,0,0.2-0.1,0.2,0.1c0,0.1,0.1,0.2,0,0.3c-0.1,0.1,0,0.3,0,0.4c0,0.2,0.1,0.3,0.3,0.2
			c0.2,0,0.4,0,0.5-0.1c0.1-0.1,0-0.3,0-0.5c0-0.2,0-0.5-0.3-0.6c-0.1,0,0-0.1,0-0.2c0-0.1,0.1-0.1,0.1-0.1
			C4.3,22.9,4.4,22.9,4.5,22.9z"/>
		<path fill="#005494" d="M40.3,25.9c0,0.1,0,0.2,0.1,0.3c0.2,0.1,0.1,0.2,0.1,0.3c0,0.1-0.1,0.1-0.2,0.1c-0.5-0.1-0.5-0.1-0.4-0.7
			c0.1-0.5,0.2-1,0.2-1.5c0-0.1,0-0.2,0.2-0.2c0.1,0,0.3-0.1,0.3,0.1c0,0.1,0.1,0.1,0.2,0.1c0.6,0.1,1.1,0.2,1.7,0.3
			c0.1,0,0.2,0,0.2,0c0.1-0.2,0.2-0.1,0.3,0c0.1,0,0.1,0.2,0.1,0.2c-0.1,0.6-0.2,1.1-0.3,1.7c0,0.2-0.1,0.3-0.2,0.2
			c-0.1,0-0.2,0-0.3-0.1c-0.1,0-0.2,0-0.2-0.1c0-0.1,0-0.2,0.1-0.2c0.1,0,0.1-0.1,0.1-0.2c0,0,0-0.1,0-0.1c0.1-0.6,0.1-0.7-0.5-0.7
			c0,0-0.1,0-0.1,0c-0.1,0.1-0.1,0.6,0,0.7c0.1,0.1,0,0.1,0,0.2c0,0.1-0.1,0.1-0.2,0.1c-0.1,0-0.3-0.1-0.4-0.1c-0.1,0-0.2,0-0.1-0.1
			c0-0.1-0.1-0.2,0.1-0.2c0.1,0,0.2-0.6,0.2-0.6c0-0.1-0.1,0-0.2-0.1c-0.2,0-0.4-0.1-0.5-0.1c-0.1,0.1-0.1,0.3-0.1,0.5
			C40.3,25.7,40.3,25.8,40.3,25.9z"/>
		<path fill="#005494" d="M24.9,41.9c-0.3,0.3-0.6,0.3-1,0.3c-0.5-0.1-0.8-0.4-0.9-0.8c-0.1-0.5,0.1-0.9,0.6-1.1
			c0.6-0.3,1.3-0.2,1.7,0.3c0.4,0.5,0.4,1.4,0.1,2c-0.3,0.5-1.1,0.7-1.7,0.6c-0.1,0-0.2-0.3-0.2-0.4c0-0.1,0.1,0,0.1,0
			c0.2,0,0.4,0,0.6,0C24.6,42.5,24.8,42.3,24.9,41.9z"/>
		<path fill="#005494" d="M13.9,6.6c0,0.4-0.3,0.7-0.7,0.9c-0.3,0.2-0.6,0.3-0.9,0.4c-0.2,0-0.3,0-0.3-0.2C12,7.7,12,7.6,12,7.5
			c0-0.1-0.1-0.1,0-0.2c0.1,0,0.1-0.1,0.2,0c0.3,0.2,0.6,0.1,0.9-0.1c0.1-0.1,0.2-0.3,0.1-0.4c-0.1-0.2-0.2-0.2-0.4-0.1
			c-0.2,0.1-0.4,0.1-0.6,0.2c-0.4,0.1-0.8,0-1-0.3C11,6.1,11,5.7,11.3,5.4c0.3-0.4,0.8-0.6,1.3-0.7c0.1,0,0.1,0,0.2,0.1
			c0,0.1,0.1,0.2,0.1,0.3c0,0.1,0.1,0.1,0,0.2c-0.1,0.1-0.2,0.1-0.3,0.1c-0.3-0.1-0.6,0-0.8,0.2c-0.1,0.1-0.1,0.2-0.1,0.3
			C11.8,6,11.9,6,12,6c0.3-0.1,0.6-0.2,0.9-0.3C13.4,5.7,13.9,6.1,13.9,6.6z"/>
		<path fill="#005494" d="M37.1,32.6c0.1-0.7,0.5-1.1,1-1.5c0.1,0,0.1,0,0.2,0c0.1,0.1,0.2,0.2,0.3,0.3c0,0.1,0.1,0.1,0.1,0.2
			c-0.1,0.1-0.1,0.2-0.2,0.1c-0.3,0-0.7,0.3-0.7,0.6c0,0.1,0,0.3,0.1,0.4c0.1,0.1,0.2,0.1,0.4,0c0.2-0.2,0.4-0.3,0.5-0.5
			c0.3-0.3,0.7-0.3,1-0.2c0.4,0.2,0.6,0.6,0.4,1.1c-0.2,0.5-0.5,0.8-0.9,1.1c-0.1,0.1-0.1,0.1-0.2,0c-0.1-0.1-0.2-0.2-0.2-0.2
			c0-0.1-0.1-0.1-0.1-0.2c0.1-0.1,0.1-0.2,0.2-0.2c0.3,0,0.5-0.2,0.6-0.5c0.1-0.1,0.1-0.3-0.1-0.4c-0.1-0.1-0.3,0-0.4,0.1
			c-0.2,0.2-0.3,0.3-0.5,0.5c-0.3,0.2-0.6,0.4-1,0.2C37.3,33.3,37.1,33,37.1,32.6z"/>
		<path fill="#005494" d="M2.8,16.6c0-0.5,0.2-0.9,0.6-1.3c0.1-0.1,0.1-0.1,0.2,0c0.1,0.1,0.2,0.1,0.3,0.2c0.1,0,0.2,0,0.1,0.2
			c0,0.1,0,0.2-0.2,0.2c-0.3,0.1-0.4,0.3-0.5,0.6c0,0.1,0,0.3,0.2,0.3c0.2,0.1,0.3,0,0.3-0.1c0.1-0.2,0.2-0.4,0.3-0.6
			c0.3-0.5,0.7-0.6,1.1-0.4c0.4,0.2,0.6,0.6,0.6,1c-0.1,0.5-0.3,0.9-0.6,1.3c-0.1,0.1-0.1,0.1-0.2,0c-0.1-0.1-0.2-0.1-0.3-0.2
			c-0.1,0-0.1-0.1-0.1-0.2c0-0.1,0-0.2,0.2-0.2c0.4-0.1,0.5-0.3,0.6-0.7c0-0.2,0-0.3-0.2-0.4c-0.2-0.1-0.3,0-0.4,0.1
			c-0.1,0.2-0.2,0.4-0.4,0.6c-0.2,0.4-0.6,0.5-1,0.4C3.1,17.5,2.8,17.1,2.8,16.6z"/>
		<path fill="#005494" d="M4.5,27.6c-0.4,0-0.8-0.1-1.1-0.1c-0.1,0-0.3-0.1-0.3,0.2c0,0.1-0.2,0-0.3,0.1c-0.1,0-0.1,0-0.1-0.1
			c-0.1-0.3-0.2-0.5-0.2-0.8c0-0.2,0.1-0.1,0.2-0.2c0.1-0.1,0.1,0,0.2,0c0.1,0.1,0.2,0.1,0.3,0.1C3.8,27,4.5,27,5.2,27.1
			c0.2,0,0.3,0.1,0.4,0.3c0.1,0.5,0.1,0.5-0.3,0.8c-0.5,0.4-1,0.8-1.5,1.2c-0.1,0.1-0.2,0.2-0.2,0.3c0,0.1-0.1,0.1-0.2,0.1
			c-0.1,0-0.2,0.1-0.2-0.1C3.1,29.4,3,29.1,3,28.8c0-0.1,0.3-0.3,0.3-0.2c0.1,0.1,0.2,0,0.3,0c0.4-0.3,0.8-0.6,1.2-0.9
			c0,0,0-0.1,0-0.1C4.7,27.6,4.6,27.6,4.5,27.6z"/>
		<path fill="#005494" d="M32.9,37.1c0-0.3,0.2-0.6,0.4-0.8c0.3-0.3,0.7-0.5,1.1-0.7c0.1,0,0.2,0,0.2,0.1c0,0.1,0.1,0.2,0.1,0.3
			c0,0.1,0.1,0.1,0,0.2c-0.1,0-0.1,0.1-0.2,0.1c-0.3-0.1-0.6,0-0.9,0.2c-0.1,0.1-0.2,0.3-0.1,0.5c0.1,0.2,0.3,0.2,0.4,0.1
			c0.2-0.1,0.4-0.2,0.6-0.3c0.5-0.2,1.1,0,1.2,0.6c0.1,0.3,0,0.5-0.2,0.8c-0.3,0.4-0.7,0.6-1.2,0.8c-0.1,0-0.2,0-0.2-0.1
			c0-0.1-0.1-0.2-0.1-0.3c0-0.1-0.1-0.1,0-0.2c0.1-0.1,0.1-0.1,0.3-0.1c0.3,0.1,0.5,0,0.7-0.3c0.1-0.1,0.1-0.2,0.1-0.4
			c-0.1-0.1-0.2-0.1-0.4-0.1c-0.2,0.1-0.4,0.2-0.7,0.3C33.6,38.2,32.9,37.8,32.9,37.1z"/>
		<path fill="#005494" d="M26.6,5.2c0-0.1,0-0.2,0.2-0.2c0.1,0,0.1-0.1,0.1-0.2c0.1-0.5,0.3-1.1,0.4-1.6c0-0.1,0-0.1-0.1-0.2
			c-0.2,0-0.4-0.2-0.6,0.1c-0.1,0.1-0.1,0-0.2,0c-0.1,0-0.1-0.1-0.1-0.1c0.1-0.2,0.1-0.3,0.2-0.5c0-0.1,0.1-0.1,0.2-0.1
			C27.5,2.6,28.3,2.8,29,3c0,0,0,0,0,0c0.1,0.2,0,0.4,0,0.7c0,0.2-0.1,0.1-0.2,0.1c-0.1,0-0.1,0-0.1-0.1c0-0.2-0.3-0.4-0.5-0.4
			c-0.1,0-0.1,0.1-0.1,0.1C28,4,27.8,4.5,27.7,5.1c0,0.1,0,0.1,0,0.2c0.2,0.1,0,0.2,0,0.3c-0.1,0.2-0.2,0-0.3,0
			c-0.2,0-0.4-0.1-0.6-0.2C26.7,5.4,26.6,5.3,26.6,5.2z"/>
		<path fill="#005494" d="M5.8,11.5c0,0,0,0.1,0,0.1c0.1,0.1,0,0.2-0.1,0.2c-0.1,0.1-0.1,0-0.2,0c-0.5-0.4-0.5-0.4-0.1-0.9
			c0.4-0.5,0.7-1,1.1-1.5c0.1-0.1,0.1-0.1,0.2,0C7,9.5,7.1,9.5,7.2,9.6c0.1,0,0.2,0.1,0.1,0.2c0,0.1-0.1,0.2-0.2,0.1
			c-0.1,0-0.5,0.3-0.5,0.4c0,0.1,0,0.1,0.1,0.1c0.5,0.3,0.9,0.7,1.4,1c0.1,0,0.1,0.1,0.2,0c0.2-0.2,0.2,0,0.3,0.1
			c0.1,0.1,0,0.2-0.1,0.3c-0.1,0.2-0.3,0.4-0.4,0.6C8,12.5,8,12.6,7.8,12.5c-0.1-0.1-0.3,0-0.2-0.2c0-0.1,0-0.2-0.1-0.2
			c-0.5-0.3-0.9-0.7-1.4-1C6.1,11,6.1,11,6,11.1C6,11.2,5.8,11.3,5.8,11.5z"/>
		<path fill="#005494" d="M27.1,40.4c-0.2,0.1-0.3,0.2-0.5,0.3c0-0.1,0-0.2-0.1-0.2c-0.1-0.1,0-0.2,0.1-0.3c0.1-0.1,0.2-0.2,0.3-0.4
			c0.1-0.2,0.4-0.4,0.6-0.4c0.1,0,0.1,0.1,0.1,0.2c0.2,0.7,0.4,1.3,0.5,2c0.1,0.2,0.1,0.3,0.4,0.2c0.1,0,0.2-0.1,0.2,0
			c0,0.1,0.1,0.3-0.1,0.3c-0.4,0.1-0.9,0.3-1.3,0.3c-0.2,0-0.2-0.2-0.2-0.3c-0.1-0.1,0.1-0.1,0.1-0.1c0.2,0,0.3-0.1,0.2-0.3
			C27.4,41.4,27.3,40.9,27.1,40.4z"/>
		<path fill="#005494" d="M17.2,40.2c-0.1,0-0.2,0-0.2,0c-0.3,0-0.4,0-0.2-0.4c0-0.1,0.1-0.1,0.1-0.1c0.2,0,0.4-0.1,0.6-0.2
			c0.1-0.1,0.6,0,0.7,0.1c0,0.1,0,0.1,0,0.2c-0.2,0.7-0.4,1.3-0.6,2c-0.1,0.2,0,0.3,0.2,0.4c0.1,0,0.2,0,0.1,0.1
			c-0.1,0.1,0,0.3-0.2,0.2c-0.4-0.1-0.8-0.2-1.3-0.4c-0.2-0.1-0.1-0.2-0.1-0.3c0-0.1,0.1-0.1,0.2,0c0.2,0.1,0.3,0,0.3-0.2
			C17,41.2,17.1,40.7,17.2,40.2z"/>
		<path fill="#005495" d="M7,30.8c-0.1,0.1-0.1,0.1-0.2,0.2c-0.1,0-0.1,0-0.1,0c-0.1-0.1-0.2-0.1-0.3,0c-0.5,0.2-1,0.5-1.5,0.7
			c-0.1,0-0.2,0.1-0.1,0.2C4.8,32.1,4.5,32,4.4,32c-0.2,0.1-0.2-0.1-0.2-0.2c-0.1-0.2-0.2-0.4-0.3-0.7C3.8,31.1,3.9,31,4,31
			c0.1,0,0.1-0.2,0.2-0.1C4.3,31,4.4,31,4.5,31c0.5-0.3,1-0.5,1.5-0.8c0.1,0,0.1-0.1,0.1-0.1c-0.1-0.2,0.1-0.2,0.2-0.2
			c0.2-0.1,0.2,0.1,0.2,0.2c0.1,0.2,0.2,0.4,0.3,0.6C6.9,30.7,6.9,30.7,7,30.8z"/>
		<path fill="#005494" d="M37.4,36.5c-0.1,0-0.1-0.1-0.2-0.1c-0.1,0-0.1-0.1,0-0.2c0-0.1,0-0.1-0.1-0.2c-0.4-0.4-0.8-0.8-1.3-1.1
			c-0.1,0-0.1-0.1-0.2-0.1c-0.2,0.2-0.2-0.1-0.3-0.1c-0.1-0.1,0-0.2,0.1-0.2c0.2-0.2,0.3-0.4,0.5-0.6c0.1-0.1,0.2-0.1,0.2,0
			c0.1,0.1,0.2,0,0.1,0.2c0,0.1,0,0.2,0.1,0.2c0.4,0.4,0.9,0.8,1.3,1.1c0,0,0.1,0.1,0.2,0.1c0.2-0.1,0.2,0.1,0.3,0.2
			c0.1,0.1,0,0.2-0.1,0.2c-0.2,0.2-0.3,0.4-0.5,0.5C37.5,36.4,37.5,36.5,37.4,36.5z"/>
		<path fill="#005494" d="M4.8,12.9c0,0.1,0,0.1,0.1,0.2c0.5,0.3,1,0.5,1.5,0.8c0.1,0,0.1,0.1,0.2,0c0.2-0.2,0.2,0,0.3,0.1
			c0.1,0.1,0,0.2,0,0.2c-0.1,0.2-0.2,0.4-0.3,0.6c0,0.1-0.1,0.2-0.2,0.1c-0.1,0-0.3,0-0.2-0.2c0-0.1-0.1-0.1-0.1-0.2
			c-0.5-0.3-1-0.5-1.5-0.8c-0.1,0-0.2-0.1-0.2,0c-0.2,0.2-0.2,0-0.3-0.1c-0.1-0.1,0-0.2,0-0.2c0.1-0.2,0.2-0.4,0.3-0.7
			c0.1-0.1,0.2-0.1,0.3-0.1C4.7,12.7,4.9,12.7,4.8,12.9z"/>
		<path fill="#005495" d="M12.8,38.9c0.6,0.1,1.1-0.1,1.5-0.6c0,0.2,0,0.4,0,0.5c0,0.3,0.1,0.5,0.2,0.7c0.1,0.1,0.1,0.2,0.2,0.3
			c0.1,0.1,0,0.1-0.1,0.1c-0.3,0-0.5,0-0.8,0.1c-0.2,0.1-0.4,0.3-0.7,0.5C13.4,39.9,13.2,39.4,12.8,38.9z"/>
		<path fill="#005495" d="M15.6,3.4c0.4,0.5,0.9,0.7,1.5,0.6c-0.4,0.4-0.7,0.9-0.7,1.5c-0.4-0.5-0.9-0.7-1.5-0.7
			C15.4,4.5,15.6,4.1,15.6,3.4z"/>
		<path fill="#005495" d="M30,40c0.4-0.4,0.6-0.9,0.5-1.5c0.4,0.4,0.9,0.6,1.5,0.6c-0.4,0.4-0.6,0.9-0.5,1.5
			C31.1,40.1,30.6,39.9,30,40z"/>
		<path fill="#AAC6DB" d="M4.5,27.6c0.1-0.1,0.3,0,0.4,0c0,0.1-0.1,0.1-0.1,0.1C4.7,27.6,4.6,27.7,4.5,27.6z"/>
		<path fill="#FEFEFE" d="M22.5,37.8c-8.5,0-15.4-6.9-15.4-15.5c0.1-8.4,7-15.3,15.5-15.2c8.4,0.1,15.2,7,15.2,15.6
			C37.7,31.1,30.9,37.8,22.5,37.8z"/>
		<path fill="#FDFDFE" d="M3.4,20.3c0,0.4,0,0.4-0.4,0.4c0,0,0,0,0,0c-0.1,0-0.4,0-0.4-0.1c-0.1-0.2,0-0.4,0.1-0.6
			c0.1-0.2,0.3-0.2,0.4-0.1c0.2,0,0.3,0.1,0.3,0.3C3.4,20.2,3.4,20.3,3.4,20.3z"/>
		<path fill="#FDFDFE" d="M41.9,17.5c0,0.2-0.1,0.4-0.3,0.4c-0.2,0.1-0.4,0-0.5-0.2c-0.1-0.2-0.1-0.3-0.2-0.5c0-0.1,0-0.1,0.1-0.1
			c0.2,0,0.4-0.1,0.6-0.2c0.1,0,0.1,0,0.1,0.1C41.9,17.2,41.9,17.4,41.9,17.5z"/>
		<path fill="#FDFDFE" d="M37.4,11.1c0,0.1-0.1,0.2-0.2,0.3c-0.1,0.1-0.3,0.1-0.4,0c0,0,0,0-0.1-0.1c-0.4-0.3-0.4-0.4,0-0.7
			c0.3-0.3,0.3-0.3,0.6,0.1C37.3,10.9,37.4,11,37.4,11.1z"/>
		<path fill="#FCFDFD" d="M38.3,10.2c0,0.2-0.2,0.3-0.3,0.3c-0.1,0-0.5-0.3-0.5-0.5c0,0,0.5-0.4,0.5-0.4C38,9.7,38.3,10.1,38.3,10.2
			z"/>
		<path fill="#FEFEFE" d="M34.8,6.9c0.5,0,0.8,0.5,0.6,0.9c-0.1,0.3-0.4,0.6-0.7,0.8c-0.3,0.2-0.5,0.2-0.8-0.1
			c-0.2-0.2-0.3-0.4-0.2-0.7c0.2-0.3,0.4-0.6,0.7-0.8C34.6,6.9,34.7,6.9,34.8,6.9z"/>
		<path fill="#FEFEFE" d="M24.7,3.4c0,0.2,0,0.4-0.1,0.7c-0.1,0.3-0.3,0.4-0.6,0.4c-0.3,0-0.5-0.2-0.6-0.5c-0.1-0.4,0-0.7,0.1-1.1
			c0.1-0.3,0.3-0.4,0.7-0.4c0.3,0,0.5,0.2,0.6,0.5C24.7,3.2,24.7,3.3,24.7,3.4z"/>
		<path fill="#FDFDFE" d="M20.6,42.7c-0.3,0-0.6-0.2-0.6-0.4c0-0.2,0.4-0.5,0.6-0.5c0.2,0,0.5,0.4,0.5,0.6
			C21.1,42.5,20.9,42.7,20.6,42.7z"/>
		<path fill="#FDFDFD" d="M20.7,40.5c0.3,0,0.5,0.1,0.5,0.3c0,0.2-0.3,0.4-0.5,0.4c-0.1,0-0.4-0.3-0.4-0.5
			C20.3,40.6,20.5,40.5,20.7,40.5z"/>
		<path fill="#FBFCFD" d="M8.8,7.9C9,8.1,9.4,8.2,9.7,8.4c0.1,0.1,0.1,0.1,0,0.2C9.6,8.7,9.4,8.8,9.3,9C9.1,8.6,9,8.2,8.8,7.9z"/>
		<path fill="#FDFEFE" d="M24.3,40.5c0.3,0,0.5,0.3,0.5,0.6c0,0.3-0.3,0.5-0.6,0.5c-0.3,0-0.5-0.2-0.5-0.6
			C23.7,40.7,23.9,40.5,24.3,40.5z"/>
		<path fill="#005494" d="M21.6,17.8c0-0.7,0.1-1.6,0.3-2.4c0.1-0.2,0.2-0.5,0.3-0.7c0.1-0.1,0.1-0.1,0-0.2c-0.3-0.2-0.4-0.7-0.2-1
			c0.1-0.2,0.1-0.3,0-0.5c-0.2-0.4-0.3-0.9-0.5-1.3c0,0,0,0,0,0c-0.1-0.5-0.1-0.5-0.7-0.5c-0.7,0-1.3,0-2-0.3
			c-0.8-0.3-1.2-0.9-1.5-1.7c-0.1-0.2,0-0.4,0.2-0.5c0.2-0.1,0.4-0.1,0.6,0.1c0.2,0.2,0.4,0.5,0.6,0.7c0.5,0.5,1.1,0.6,1.8,0.5
			c0.3,0,0.6-0.1,0.8-0.2c0.2-0.1,0.4-0.3,0.3-0.5c0-0.2,0-0.4,0.1-0.5c0.1-0.3,0.3-0.5,0.7-0.5c0.6-0.1,1.1,0,1.7,0.1
			c0.3,0.1,0.5,0.2,0.5,0.5c0,0.3-0.2,0.4-0.4,0.6c-0.3,0.2-0.5,0.2-0.8,0.2c-0.4,0-0.7,0.2-0.7,0.7c-0.1,0.5,0,1.1,0.1,1.6
			c0,0.2,0.1,0.4,0.2,0.6c0,0.1,0.1,0.2,0.3,0.2c1-0.1,1.9-0.2,2.9-0.3c0.5,0,0.9-0.1,1.4-0.1c0.2,0,0.3-0.1,0.2-0.2
			c0-0.1,0-0.2-0.1-0.3c0-0.3-0.1-0.5-0.5-0.6c-0.4-0.1-0.6-0.3-0.8-0.7c-0.1-0.3,0-0.6,0.3-0.8c0.5-0.4,1.6-0.3,2.1,0.1
			c0.3,0.2,0.3,0.6,0.2,0.9c-0.2,0.5,0,0.9,0.2,1.4c0,0.1,0.2,0.1,0.3,0.1c0.5,0,0.9,0.1,1.3,0.2c0.5,0.1,0.7,0.4,0.6,0.9
			c-0.1,1.1-0.4,2.1-0.7,3.1c-0.1,0.2,0,0.3,0.2,0.4c0.4,0.1,0.8,0.3,1.1,0.6c0.2,0.2,0.3,0.4,0.2,0.7c-0.1,0.2-0.2,0.3-0.4,0.2
			c-0.3-0.2-0.7-0.3-1.1-0.4c-0.2,0-0.2,0-0.2,0.2c0,0.2,0,0.3,0.1,0.5c0.2,0.6,0.4,1.2,0.3,1.8c-0.1,0.6-0.3,1.1-0.4,1.6
			c-0.1,0.2-0.1,0.4-0.2,0.6c-0.1,0.2,0,0.3,0.2,0.5c0.4,0.3,0.7,0.6,0.9,1c0.4,0.7,0.3,1.5,0.2,2.2c-0.2,0.8-0.5,1.5-0.9,2.2
			c-0.2,0.5-0.5,1-0.7,1.5c0,0.1-0.1,0.2-0.2,0.2c-0.6,0.4-1.2,0.6-2,0.5c-0.4-0.1-0.4-0.3-0.2-0.6c0.2-0.2,0.5-0.4,0.8-0.5
			c0.5-0.1,0.6-0.3,0.7-0.8c0.2-1.2,0.4-2.5,0.3-3.7c0-0.7-0.1-1.5-0.4-2.2c-0.2-0.5-0.1-1.1,0-1.6c0.1-0.9,0.1-1.7-0.2-2.5
			c-0.1-0.3-0.3-0.4-0.5-0.4c-0.3,0-0.5,0.2-0.5,0.5c-0.1,0.5-0.1,1.1-0.2,1.6c-0.1,0.6-0.2,1.2-0.5,1.7c0,0.1-0.1,0.2-0.1,0.3
			c-0.2,0.4-0.1,0.6,0.2,0.9c0.5,0.4,0.8,0.9,0.9,1.5c0.1,0.6,0,1.3-0.2,1.9c-0.1,0.5-0.3,0.9-0.6,1.4c-0.1,0.2-0.3,0.4-0.3,0.7
			c-0.2,0.5-0.5,0.8-1,1c-0.5,0.2-1,0.2-1.5,0.2c-0.3-0.1-0.4-0.3-0.2-0.5c0.3-0.4,0.7-0.6,1.2-0.7c0.4-0.1,0.5-0.3,0.6-0.6
			c0.3-1.5,0.3-2.9-0.4-4.3c-0.3-0.6-0.2-1.2-0.1-1.9c0.2-1.2,0.3-2.5,0.5-3.7c0-0.3,0-0.3-0.3-0.3c-0.8,0-0.8,0.1-0.8,0.7
			c0,0.7,0,1.4-0.2,2.1c-0.1,0.3-0.1,0.7-0.3,1c-0.3,0.6-1,0.7-1.6,0.3c-0.5-0.4-0.7-0.9-0.9-1.4C21.7,19.6,21.6,18.8,21.6,17.8z"/>
		<path fill="#005494" d="M11.3,25.1c-0.1,0-0.3,0.1-0.4,0.1c-0.5,0.1-0.9-0.3-0.8-0.8c0.1-0.5,0.7-0.8,1.3-0.7c0.5,0.1,0.8,0.5,1,1
			c0.2,0.6,0.1,1.3-0.1,1.9c-0.2,0.6-0.4,1.2-0.3,1.9c0,0.6,0.2,1.2,0.6,1.6c0.1,0.2,0.3,0.3,0.5,0.4c0.3,0.2,0.3,0.1,0.5-0.2
			c0.1-0.3,0.1-0.5,0-0.7c-0.5-0.8-0.6-1.6-0.1-2.4c0.4-0.7,1-1,1.8-1c0,0,0.1,0,0.1,0c0.1,0,0.2,0.1,0.3,0.2c0,0.1-0.1,0.2-0.2,0.3
			c-0.1,0.1-0.3,0.1-0.4,0.1c-0.8,0.2-1.2,1-1,1.7c0.1,0.3,0.3,0.4,0.5,0.3c0.1,0,0.2-0.1,0.2-0.2c0,0,0-0.1,0-0.1
			c0.1-0.4,0.3-0.6,0.6-0.5c0.4,0.1,0.6,0.4,0.5,0.8c-0.1,0.3-0.2,0.5-0.5,0.6c-0.1,0-0.1,0.1-0.1,0.1c-0.2,0.5-0.4,1-0.5,1.5
			c0,0.2-0.1,0.4,0,0.6c0.1,0.3,0.5,0.4,0.7,0.1c0.1-0.2,0.2-0.4,0.3-0.6c0.1-0.3,0.2-0.7,0.1-1c0-0.3,0.2-0.5,0.5-0.5
			c0.3,0,0.5,0.2,0.5,0.6c0,0.1,0,0.2-0.1,0.3c-0.3,0.4-0.3,0.9-0.4,1.3c0,0.1,0,0.2,0,0.4c0,0.3,0.1,0.4,0.3,0.5
			c0.3,0,0.5-0.1,0.6-0.3c0.1-0.3,0.2-0.7,0.3-1c0-0.1,0.1-0.3,0.1-0.4c0-0.2,0.1-0.4,0-0.6c-0.2-0.4,0.1-0.9,0.5-1
			c0.3-0.1,0.5,0.1,0.6,0.4c0,0.2,0,0.4-0.1,0.6c-0.1,0.1-0.1,0.2,0,0.4c0.1,0.4,0,0.8,0,1.2c0,0.1,0,0.3,0,0.4
			c0,0.2,0.1,0.4,0.3,0.5c0.2,0.1,0.4,0.1,0.7,0c0.1-0.1,0.2-0.2,0.2-0.4c-0.1-0.5,0-1.1-0.1-1.6c0-0.2,0-0.3,0-0.5
			c0.1-0.3,0.4-0.5,0.7-0.4c0.2,0.1,0.4,0.3,0.3,0.6c-0.2,0.7,0,1.4,0.2,2.1c0.1,0.3,0.3,0.4,0.5,0.4c0.2-0.1,0.4-0.3,0.3-0.6
			c-0.1-0.5-0.1-1-0.3-1.5c0-0.1,0-0.1,0-0.2c-0.1-0.3,0-0.5,0.2-0.6c0.3-0.1,0.6,0,0.7,0.2c0.1,0.1,0.1,0.3,0.1,0.5
			c0.1,0.7,0.3,1.3,0.5,2c0.1,0.1,0.2,0.2,0.3,0.2c0.2,0,0.3-0.1,0.3-0.3c0.1-0.2,0-0.4-0.1-0.7c-0.1-0.3-0.2-0.6-0.5-0.9
			c-0.2-0.3-0.1-0.6,0.2-0.8c0.5-0.3,1,0,1,0.6c0,0.6,0.3,1.1,0.4,1.6c0.1,0.2,0.4,0.3,0.6,0.2c0.2-0.1,0.2-0.2,0.2-0.4
			c-0.1-0.3-0.2-0.7-0.5-1c-0.1-0.2-0.2-0.3-0.1-0.5c0-0.3,0.2-0.4,0.6-0.4c0.3,0,0.6,0.2,0.6,0.5c0,0.4,0.2,0.7,0.2,1
			c0,0.1,0.1,0.3,0.2,0.4c0.1,0.2,0.3,0.2,0.5,0.2c0.2-0.1,0.4-0.4,0.3-0.5c-0.1-0.2-0.1-0.4-0.2-0.6c0-0.1-0.1-0.3-0.1-0.4
			C26.6,31.2,26.7,31,27,31c0.3,0,0.5,0.1,0.7,0.4c0.2,0.2,0.3,0.5,0.4,0.7c0.2,0.3,0.4,0.3,0.6,0.2c0.1-0.1,0.2-0.2,0.1-0.4
			c0-0.1-0.1-0.2-0.1-0.3c0-0.2-0.1-0.3,0.1-0.5c0.2-0.1,0.5-0.1,0.6,0c0.1,0.1,0.1,0.1,0.2,0.2c0.3,0.4,0.6,0.4,1,0.3
			c0.6-0.1,1.1-0.5,1.6-0.9c1-1,1.7-2.1,2-3.4c0-0.2,0.1-0.3,0.1-0.5c0-0.2,0-0.3-0.2-0.4c-0.3-0.3-0.4-0.8-0.2-1.2
			c0.2-0.5,0.9-0.5,1.4-0.1c0.3,0.3,0.4,0.6,0.4,1c0,0.6-0.1,1.2-0.2,1.8c-0.3,1-0.7,2.1-1.3,3c-0.8,1.4-2,2.5-3.4,3.3
			c-1,0.7-2.2,1.2-3.4,1.5c-0.9,0.2-1.8,0.3-2.7,0.4c-1.1,0.1-2.3,0.1-3.4,0c-2.8-0.2-5.4-0.9-7.7-2.6c-1.1-0.8-2-1.7-2.5-2.9
			c-0.5-1.3-0.7-2.5-0.1-3.8C11,26.3,11.2,25.7,11.3,25.1z"/>
		<path fill="#005494" d="M10.2,18.9c0-1.3,0.3-2.4,1.2-3.4c0.7-0.8,1.6-1.2,2.6-1.5c1.2-0.3,2.5-0.4,3.7,0c1.9,0.7,3.1,2.1,3.3,4.1
			c0.2,2-0.4,3.8-1.9,5.2c-0.8,0.7-1.7,1-2.7,1.1c-1.8,0.2-3.4-0.3-4.7-1.6c-0.9-0.9-1.4-2-1.5-3.2c0-0.1,0-0.2,0-0.3
			C10.2,19.3,10.2,19.1,10.2,18.9z"/>
		<path fill="#FEFEFE" d="M27.2,14.7c0-0.3,0-0.5,0.1-0.8c0-0.1,0.1-0.2,0.2-0.3c0.6-0.2,1.2-0.2,1.8-0.1c0.1,0,0.2,0.1,0.2,0.3
			c0,0.7-0.1,1.4-0.3,2c-0.1,0.2-0.2,0.3-0.4,0.3c-0.3,0.1-0.6,0.1-0.9,0.1c-0.4-0.1-0.6-0.2-0.6-0.6C27.3,15.3,27.2,15,27.2,14.7z"
			/>
		<path fill="#FEFEFE" d="M23.4,14.7c0.2-0.1,0.2-0.3,0.3-0.5c0.1-0.3,0.3-0.4,0.6-0.5c0.3,0,0.7-0.1,1-0.1c0.3,0,0.4,0.1,0.5,0.4
			c0.2,0.6,0.3,1.2,0.3,1.8c0,0.3-0.1,0.5-0.4,0.6c-0.1,0-0.2,0-0.3,0c-0.6,0-0.7,0-0.9-0.7C24.3,15.3,24,14.9,23.4,14.7z"/>
		<path fill="#FEFEFE" d="M23.7,18.9c0,0.4,0,0.9-0.1,1.3c0,0.1,0,0.2-0.1,0.3c0,0.1-0.1,0.2-0.2,0.2c-0.1,0-0.2-0.1-0.2-0.1
			c-0.2-0.3-0.2-0.5-0.3-0.8c-0.2-1-0.3-2-0.1-3c0-0.1,0.1-0.3,0.2-0.4c0.1-0.1,0.2-0.1,0.3,0c0.2,0.2,0.2,0.5,0.3,0.8
			C23.7,17.7,23.7,18.3,23.7,18.9z"/>
		<path fill="#FEFEFE" d="M18.4,19.2c0,0.5-0.2,0.9-0.5,1.3c-0.3,0.3-0.5,0.3-0.8,0c-0.3-0.3-0.5-0.6-0.7-1c-0.1-0.2,0-0.4,0.2-0.5
			c0.4-0.3,0.8-0.5,1.3-0.6c0.2,0,0.3,0,0.4,0.2C18.4,18.8,18.4,19,18.4,19.2z"/>
		<path fill="#FEFEFE" d="M15.6,16.4c0.6,0,1.1,0.2,1.5,0.5c0.1,0.1,0.2,0.2,0.2,0.3c0.1,0.1,0.1,0.3,0,0.4
			c-0.3,0.4-0.8,0.6-1.3,0.6c-0.1,0-0.2-0.1-0.3-0.2c-0.3-0.3-0.6-0.7-0.7-1.1c-0.1-0.3-0.1-0.4,0.2-0.5
			C15.4,16.4,15.5,16.4,15.6,16.4z"/>
		<path fill="#FEFEFE" d="M13,18.8c0-0.5,0.1-0.9,0.4-1.3c0-0.1,0.1-0.1,0.1-0.2c0.4-0.4,0.6-0.4,0.9,0.1c0.2,0.3,0.3,0.6,0.4,0.9
			c0.1,0.2,0,0.4-0.2,0.6c-0.4,0.2-0.8,0.4-1.2,0.5c-0.2,0.1-0.3,0-0.4-0.2C13,19,13,18.9,13,18.8z"/>
		<path fill="#FEFEFE" d="M15.4,21.5c-0.6-0.1-1.1-0.3-1.6-0.8c-0.1-0.1-0.1-0.3,0-0.4c0.3-0.3,0.7-0.5,1.1-0.6
			c0.2-0.1,0.4,0,0.6,0.2c0.2,0.3,0.4,0.7,0.5,1.1c0.1,0.3,0,0.4-0.3,0.5C15.6,21.5,15.5,21.5,15.4,21.5z"/>
		<path fill="#FEFEFE" d="M15.2,15.6c-0.2,0-0.4,0-0.6,0c-0.2,0-0.3-0.2-0.4-0.3c-0.1-0.2,0-0.4,0.2-0.5c0.6-0.2,1.2-0.3,1.8-0.1
			c0.2,0.1,0.3,0.3,0.3,0.5c0,0.2-0.1,0.3-0.3,0.3C15.8,15.6,15.5,15.6,15.2,15.6z"/>
		<path fill="#FEFEFE" d="M13.7,22.2c0,0.4-0.4,0.6-0.7,0.5c-0.4-0.2-0.7-0.5-1-0.9c-0.1-0.2-0.1-0.4,0.1-0.6
			c0.2-0.2,0.4-0.3,0.6-0.2c0.4,0.2,0.7,0.6,1,1C13.7,22.1,13.6,22.2,13.7,22.2z"/>
		<path fill="#FEFEFE" d="M12.1,19.4c0,0.1,0,0.2,0,0.3c0,0.2-0.1,0.3-0.3,0.4c-0.4,0.2-0.6,0.1-0.7-0.3c-0.1-0.3-0.1-0.7-0.1-1.1
			c0.1-0.3,0.4-0.6,0.8-0.5c0.1,0,0.2,0.1,0.2,0.2c0,0.1,0,0.1,0,0.2C12.1,19,12.1,19.2,12.1,19.4C12.1,19.4,12.1,19.4,12.1,19.4z"
			/>
		<path fill="#FEFEFE" d="M19.5,21.4c0,0.1,0,0.2-0.1,0.3c-0.2,0.4-0.5,0.7-0.8,0.9c-0.2,0.1-0.3,0.1-0.5,0
			c-0.2-0.2-0.3-0.4-0.2-0.6c0.2-0.4,0.5-0.7,0.8-0.9C19,20.8,19.5,21.1,19.5,21.4z"/>
		<path fill="#FEFEFE" d="M11.6,16.8c0-0.1,0-0.2,0.1-0.3c0.2-0.4,0.5-0.7,0.8-0.9c0.2-0.1,0.3-0.1,0.5,0c0.2,0.2,0.3,0.5,0.2,0.6
			c-0.2,0.4-0.5,0.7-0.9,1C12,17.5,11.6,17.2,11.6,16.8z"/>
		<path fill="#FEFEFE" d="M16,22.5c0.1,0,0.2,0,0.3,0c0.4,0,0.5,0.2,0.6,0.5c0,0.2,0,0.3-0.2,0.4c-0.2,0.1-0.4,0.1-0.6,0.1
			c-0.3,0-0.7,0-1-0.1c-0.3-0.1-0.4-0.3-0.2-0.5c0.1-0.1,0.2-0.2,0.4-0.2C15.4,22.5,15.7,22.5,16,22.5C16,22.5,16,22.5,16,22.5z"/>
		<path fill="#FEFEFE" d="M19.3,18.8c0-0.2,0-0.3,0-0.5c0-0.3,0.1-0.4,0.4-0.4c0.3,0,0.4,0,0.5,0.3c0.1,0.5,0.2,0.9,0.1,1.4
			c-0.1,0.2-0.2,0.3-0.5,0.3c-0.2,0-0.4-0.1-0.4-0.4C19.3,19.2,19.3,19,19.3,18.8z"/>
		<path fill="#FEFEFE" d="M18.8,16.9c-0.3,0-1.2-0.7-1.2-1c-0.1-0.3,0.2-0.6,0.6-0.5c0.5,0.2,0.9,0.5,1.1,1
			C19.4,16.6,19.2,16.9,18.8,16.9z"/>
	</g>
</g>
</svg>
